# xmcd
#
# Track frame offsets:
#	150
#	10667
#	23062
#	35460
#	44667
#	55762
#	66100
#	74895
#	85520
#	96272
#	106875
#	120000
#	128852
#	137600
#	148940
#	159325
#	171705
#	181657
#	193687
#	205500
#	215032
#	239537
#	265430
#	286105
#	310077
#
# Disc length: 4478
#
# Revision: 2
# Processed by: cddbd v1.5.1PL0 Copyright (c) Steve Scherf et al.
# Submitted via: audiograbber 1.80
# Normalized: r1:DSETVAR1,TDELIM( - )
#
DISCID=69117c19
DTITLE=Various Artist - Blue Orleans
DYEAR=1900
DGENRE=
TTITLE0=Fats Domino - Mardi Grass in New Orleans
TTITLE1=The Spiders - I Don`t Want to Do It
TTITLE2=Smiley Lewis - I Hear You Knocking
TTITLE3=Roy Brown - Let The Four Winds Blow
TTITLE4=Dave Bartholomew - The Monkey
TTITLE5=Jessie Hill - Ooh Poo Pah Doo Part Two
TTITLE6=Chris Kenner - I Like I Like That (part one)
TTITLE7=Prince La La - She Put The Hurt On Me
TTITLE8=Barbara George - I Know
TTITLE9=The Showmen - It Will Stand
TTITLE10=Clarence `Bon Ton` Garlow - Bon Ton Roulet
TTITLE11=Shirley and Lee - The Flirt
TTITLE12=Fats Domino - I`m In Love Again
TTITLE13=Amos Milburne - Chicken Shack Boogie Number Two
TTITLE14=Aaron Neville - Over You
TTITLE15=Ernie K Doe - A Certain Girl
TTITLE16=Benny Spellman - Fortune Teller
TTITLE17=Earl King - Trick Bag
TTITLE18=Irma Thomas - Ruler of My Heart
TTITLE19=Sam Butera - Night Train
TTITLE20=Lou Donaldson - Everything I Do Gonna Be Funky (from now on)
TTITLE21=Grant Green - Ease back
TTITLE22=Baby Face Willett - Stop and Listen
TTITLE23=The Wild Magnolias - Herc-Jolly-John
TTITLE24=Dr. John - Flaming Sword
EXTD=
EXTT0=
EXTT1=
EXTT2=
EXTT3=
EXTT4=
EXTT5=
EXTT6=
EXTT7=
EXTT8=
EXTT9=
EXTT10=
EXTT11=
EXTT12=
EXTT13=
EXTT14=
EXTT15=
EXTT16=
EXTT17=
EXTT18=
EXTT19=
EXTT20=
EXTT21=
EXTT22=
EXTT23=
EXTT24=
PLAYORDER=
